<svg version="1.0" xmlns="http://www.w3.org/2000/svg"
     width="1051.000000pt" height="1047.000000pt" viewBox="0 0 1051.000000 1047.000000"
     preserveAspectRatio="xMidYMid meet">

    <g transform="translate(0.000000,1047.000000) scale(0.100000,-0.100000)"
       fill="#000000" stroke="none">
        <path d="M7077 10292 c-16 -9 -38 -35 -49 -57 -40 -78 -94 -139 -163 -183
-124 -79 -270 -125 -445 -138 -188 -14 -371 -92 -505 -217 -24 -22 -155 -87
-176 -87 -25 0 -137 -47 -190 -79 -27 -17 -52 -31 -55 -31 -6 0 -78 -54 -100
-75 -44 -42 -184 -240 -184 -261 0 -3 -7 -20 -15 -37 -18 -39 -48 -159 -64
-252 -7 -38 -26 -97 -42 -130 -30 -59 -30 -62 -23 -171 5 -84 3 -128 -9 -185
-14 -67 -28 -229 -31 -364 0 -29 6 -64 16 -82 27 -54 30 -88 13 -160 -48 -203
-53 -255 -30 -324 10 -30 21 -58 26 -63 4 -5 0 -21 -10 -35 -95 -133 -145
-325 -139 -534 l3 -128 -25 -5 c-79 -18 -118 -41 -187 -110 -39 -40 -83 -90
-96 -111 -55 -87 -106 -191 -122 -250 -17 -60 -17 -66 0 -125 20 -74 39 -103
114 -180 54 -57 57 -58 109 -58 l54 0 -58 43 c-147 108 -201 225 -159 344 32
93 126 240 201 316 66 67 111 82 249 80 96 -1 133 -6 185 -24 36 -12 81 -22
101 -20 29 1 40 -3 52 -22 9 -13 23 -31 31 -40 14 -13 11 -22 -24 -90 -22 -42
-40 -82 -40 -90 0 -9 -6 -18 -12 -20 -10 -4 -10 -6 0 -6 8 -1 12 -17 12 -48 0
-34 11 -69 41 -132 23 -47 51 -98 62 -113 l21 -28 -39 -40 c-22 -23 -71 -56
-110 -75 l-70 -34 58 0 c61 -1 101 17 159 73 31 30 41 32 58 11 7 -9 41 -31
75 -50 l62 -35 182 0 c100 0 189 4 199 10 9 5 42 18 72 29 30 10 62 22 70 25
12 5 19 -3 29 -29 7 -19 19 -35 28 -35 11 0 13 5 8 18 -23 50 -18 80 20 120
43 47 127 182 146 235 10 27 19 37 35 37 12 0 27 6 33 14 6 7 49 22 96 31 79
17 166 17 255 1 14 -2 47 -7 73 -11 88 -12 231 -80 285 -135 38 -39 83 -112
96 -157 6 -20 4 -21 -34 -16 -35 5 -45 2 -71 -23 -24 -23 -49 -76 -49 -106 0
-5 16 -8 35 -8 30 0 35 3 35 23 0 31 27 67 51 67 22 0 43 -43 34 -71 -6 -17
-1 -19 41 -19 l46 0 -4 53 c-6 72 -86 234 -145 292 -52 52 -172 115 -263 138
-53 13 -155 27 -305 40 -11 1 21 19 71 40 96 40 134 52 225 70 52 9 59 8 95
-13 39 -23 175 -119 184 -130 3 -3 32 -28 65 -56 33 -27 77 -64 97 -83 21 -19
96 -69 168 -112 71 -43 140 -87 152 -99 12 -11 29 -20 37 -20 9 0 3 -7 -14
-16 -16 -8 -37 -21 -45 -28 -8 -8 -40 -28 -70 -45 l-55 -31 72 0 c42 0 75 5
79 11 3 6 26 20 49 30 38 17 67 19 222 18 98 0 189 2 203 5 14 3 51 10 82 15
31 5 83 22 115 38 65 32 64 31 115 73 47 39 71 46 199 55 57 3 120 13 139 21
63 27 74 32 123 51 68 26 150 93 202 166 151 211 192 256 276 303 49 28 109
74 144 112 37 39 61 85 105 201 31 80 48 102 214 266 133 132 155 159 183 220
42 94 55 126 88 215 61 164 112 259 204 375 66 82 115 130 154 147 21 10 27
20 27 45 0 58 -40 55 -185 -12 -73 -35 -131 -47 -229 -48 -100 -2 -101 -2
-171 38 -139 79 -228 104 -299 84 -22 -6 -67 -12 -100 -13 -54 -1 -64 2 -91
28 -29 27 -32 28 -110 21 -44 -3 -90 -9 -102 -12 -13 -3 -23 -1 -23 5 0 6 102
61 228 122 286 141 316 155 377 178 27 11 51 24 53 31 7 21 -29 24 -71 6 -23
-10 -51 -21 -62 -26 -11 -4 -50 -22 -87 -38 -37 -17 -70 -31 -72 -31 -3 0 -47
-20 -98 -44 -51 -24 -111 -51 -133 -61 -22 -10 -98 -47 -170 -82 -71 -34 -141
-63 -155 -63 -14 0 -38 -7 -54 -15 -15 -8 -51 -15 -80 -15 -28 0 -69 -5 -91
-10 -83 -20 -238 -40 -317 -40 -46 -1 -103 -5 -128 -11 -25 -5 -88 -16 -140
-24 -186 -27 -285 -65 -405 -155 -84 -63 -131 -84 -216 -99 -71 -12 -209 -38
-279 -51 -114 -23 -214 -62 -310 -121 -56 -35 -60 -35 -60 -9 0 32 32 153 44
169 6 8 45 39 85 70 120 88 153 128 187 225 18 50 21 215 4 246 -25 46 -15
120 28 210 67 140 75 177 69 293 -6 117 -23 170 -89 279 -25 40 -53 94 -63
120 -17 47 -17 49 5 118 18 55 21 82 16 122 -4 29 -11 57 -15 63 -17 21 -100
192 -125 256 -37 95 -36 201 2 243 11 11 32 40 47 63 23 35 25 46 15 58 -16
19 -28 19 -63 -3z m-67 -271 c0 -41 42 -156 106 -288 60 -125 64 -152 34 -231
-11 -29 -20 -66 -20 -83 0 -24 -11 -42 -48 -79 -55 -54 -102 -81 -187 -105
-91 -25 -159 -51 -233 -89 -37 -19 -80 -40 -95 -47 -34 -16 -32 -43 4 -47 17
-2 50 11 90 35 83 50 128 68 219 88 135 30 215 60 253 96 27 25 34 22 63 -26
72 -122 88 -166 92 -267 5 -122 -2 -166 -31 -179 -12 -6 -34 -28 -49 -50 -32
-44 -56 -56 -228 -109 -196 -61 -224 -73 -275 -122 -35 -34 -194 -114 -249
-125 -65 -14 -84 -75 -23 -75 26 0 32 2 170 75 48 26 101 47 118 47 25 0 71
21 89 40 27 30 110 58 252 86 102 20 113 15 121 -49 3 -23 10 -62 17 -87 29
-110 -9 -249 -88 -318 -53 -46 -53 -46 -105 -76 -26 -16 -60 -41 -75 -57 -15
-16 -32 -29 -39 -29 -7 0 -16 -6 -20 -13 -9 -14 -76 -65 -108 -83 -11 -6 -54
-21 -95 -33 -41 -12 -88 -26 -105 -30 -16 -5 -52 -12 -80 -16 -27 -3 -72 -10
-100 -15 -27 -5 -75 -12 -105 -15 -30 -3 -62 -10 -70 -15 -27 -17 7 -27 63
-19 29 4 111 14 182 23 253 31 312 46 389 93 l38 25 -7 -74 c-4 -40 -14 -86
-23 -103 -28 -56 -234 -246 -282 -260 -14 -4 -29 -11 -35 -15 -17 -12 -131
-49 -175 -56 -30 -5 -40 -11 -38 -23 5 -21 59 -16 152 14 39 13 73 22 75 20 5
-5 -37 -63 -75 -105 -18 -19 -50 -57 -70 -85 -21 -27 -43 -55 -49 -62 -15 -19
-26 -33 -79 -101 -26 -35 -50 -61 -53 -59 -2 3 1 34 8 68 6 35 12 103 12 151
0 78 -3 93 -32 152 -57 117 -133 168 -291 196 -64 11 -66 13 -84 53 -23 54
-25 164 -2 217 9 22 23 59 32 83 9 23 20 50 25 59 5 10 9 23 9 30 0 7 6 25 14
39 7 14 16 38 20 54 12 48 118 259 174 345 30 46 148 285 167 335 10 28 29 73
42 100 13 28 47 104 75 170 27 66 73 167 100 225 114 240 128 269 128 275 0
17 155 315 196 376 41 62 163 179 186 179 4 0 8 -13 8 -29z m-259 -168 c-44
-67 -312 -595 -366 -720 -10 -24 -21 -43 -24 -43 -4 0 -15 34 -24 75 -18 74
-53 157 -122 285 -19 35 -35 71 -35 80 0 9 -4 20 -9 26 -11 12 -49 140 -53
178 -3 27 2 32 51 57 68 34 162 56 280 64 100 6 214 31 296 62 28 11 52 18 54
17 2 -2 -20 -38 -48 -81z m-655 -261 c35 -112 51 -151 105 -252 56 -104 72
-154 80 -253 4 -54 13 -105 20 -113 9 -11 9 -20 1 -37 -18 -37 -62 -137 -98
-225 -19 -46 -44 -100 -55 -120 -45 -81 -91 -152 -97 -152 -4 0 -14 11 -22 24
-8 13 -52 64 -97 113 -91 99 -117 131 -155 188 -14 22 -53 73 -86 114 -39 49
-65 94 -77 130 -9 31 -27 67 -39 81 -13 14 -32 43 -43 65 -55 108 -83 146
-115 158 -10 3 -18 13 -18 21 0 19 86 96 136 121 21 11 55 29 74 41 42 25 120
54 142 54 34 0 165 68 227 118 35 28 67 49 72 47 4 -3 24 -58 45 -123z m-726
-326 c0 -8 23 -37 50 -65 62 -62 135 -174 145 -221 9 -39 35 -84 112 -187 29
-40 53 -75 53 -78 0 -3 24 -38 53 -78 95 -131 119 -174 152 -272 29 -88 28
-93 -14 -179 -22 -45 -49 -110 -61 -145 -12 -35 -29 -75 -36 -90 -8 -14 -14
-33 -14 -42 0 -19 -49 -129 -57 -129 -15 0 -120 114 -158 171 -24 36 -67 86
-96 110 -164 137 -207 180 -228 223 -17 37 -26 46 -46 46 -43 0 -30 -37 41
-117 37 -40 94 -95 128 -121 75 -57 75 -57 112 -112 122 -179 151 -220 184
-260 21 -25 41 -55 45 -67 3 -13 11 -23 16 -23 12 0 39 -62 39 -90 0 -15 -7
-20 -29 -20 -79 0 -200 -46 -267 -102 -75 -62 -126 -115 -151 -154 -16 -24
-30 -44 -33 -44 -3 0 -41 34 -85 75 -43 41 -82 75 -87 75 -12 0 -50 90 -56
132 -5 42 13 178 34 252 21 73 18 149 -8 204 -20 44 -20 52 -9 142 6 52 11
120 11 150 1 30 9 101 18 158 14 81 16 118 8 174 -6 50 -6 80 2 102 7 18 12
42 12 54 0 36 78 328 101 379 12 27 32 62 45 80 13 17 24 35 24 39 0 11 32 44
42 44 4 0 8 -6 8 -14z m4008 -1015 c10 -6 -1 -22 -43 -62 -66 -62 -123 -136
-149 -194 -50 -110 -82 -174 -108 -212 -36 -53 -35 -63 5 -63 25 0 37 7 54 33
12 17 33 43 46 57 38 42 73 92 107 155 31 57 105 145 122 145 5 0 25 10 46 23
82 51 129 62 259 61 115 0 124 -2 185 -31 88 -44 169 -59 246 -46 34 5 64 7
67 5 3 -3 -15 -20 -39 -37 -45 -32 -117 -64 -241 -108 -286 -101 -257 -90
-375 -146 -97 -47 -152 -77 -195 -107 -29 -21 -86 -48 -195 -95 -59 -25 -159
-75 -252 -127 -132 -74 -157 -87 -228 -125 -50 -26 -95 -42 -135 -47 -80 -10
-210 -56 -265 -95 -25 -17 -65 -39 -90 -49 -94 -37 -112 -47 -262 -139 -84
-52 -169 -101 -188 -110 -40 -19 -219 -77 -235 -77 -6 0 -40 -18 -77 -39 -61
-36 -202 -93 -338 -137 -30 -10 -105 -37 -167 -61 -62 -24 -117 -43 -123 -43
-9 0 -110 -46 -172 -78 -5 -2 -8 0 -8 5 0 4 15 18 33 30 18 13 42 31 53 41 10
10 75 60 144 112 69 51 127 96 130 99 3 4 21 18 40 32 19 15 47 37 61 50 27
25 35 32 179 160 47 42 104 93 125 113 47 43 263 190 350 237 81 43 173 89
179 89 4 0 52 22 109 49 56 26 119 56 140 66 21 10 40 15 43 12 11 -11 -69
-200 -99 -234 -18 -21 -27 -39 -23 -49 12 -32 54 20 101 127 26 59 64 106 198
243 60 61 125 130 144 154 20 23 44 42 54 42 10 0 31 13 46 28 42 42 262 202
278 202 2 0 33 17 67 38 69 41 101 56 166 79 88 29 203 42 230 24z m-635 -67
c10 -10 -218 -184 -240 -184 -4 0 -14 -6 -22 -14 -29 -24 -389 -212 -506 -263
-44 -19 -71 -31 -170 -73 -45 -19 -106 -40 -115 -40 -17 0 -11 23 26 111 116
272 156 319 313 368 31 10 92 24 136 30 44 7 103 17 130 22 28 6 104 14 170
20 66 5 140 13 165 18 56 11 105 13 113 5z m1470 -227 c-37 -52 -103 -188
-149 -310 -62 -164 -87 -215 -132 -268 -35 -41 -58 -47 -95 -26 -49 27 -189
148 -287 248 -51 53 -62 69 -57 82 7 19 293 156 350 169 29 6 61 16 72 23 11
7 55 25 97 39 42 14 110 41 150 60 40 19 75 32 77 30 2 -2 -9 -23 -26 -47z
m-1752 -82 c-51 -66 -178 -160 -287 -214 -124 -60 -244 -117 -304 -142 -30
-12 -72 -33 -92 -46 -21 -13 -41 -23 -44 -23 -7 0 -205 -120 -214 -130 -3 -3
-30 -22 -60 -42 -68 -46 -102 -76 -369 -325 -58 -53 -133 -115 -266 -218 -42
-33 -82 -65 -88 -70 -7 -6 -34 -28 -62 -50 -27 -22 -52 -42 -55 -45 -3 -3 -25
-21 -50 -40 -25 -19 -47 -37 -50 -40 -15 -18 -130 -100 -139 -100 -6 0 -11 21
-11 48 0 27 -9 77 -21 112 l-21 64 21 17 c12 10 21 21 21 26 0 13 105 111 210
195 52 42 110 96 129 120 19 24 59 63 89 88 30 25 60 50 66 56 128 119 443
279 886 449 25 10 54 21 65 26 11 4 54 22 95 38 42 17 186 87 320 154 135 68
247 123 249 121 2 -2 -6 -15 -18 -29z m-771 -11 c16 -41 12 -73 -21 -160 -43
-115 -62 -132 -209 -194 -117 -49 -309 -140 -334 -158 -6 -4 -24 -14 -39 -20
l-29 -12 8 32 c3 18 12 46 20 63 7 16 20 48 29 70 43 103 109 212 167 276 42
46 123 83 213 98 39 6 88 15 110 20 65 14 75 13 85 -15z m-539 -139 c5 -31 1
-52 -22 -100 -31 -65 -89 -214 -89 -228 0 -5 -11 -32 -24 -60 -20 -44 -41 -66
-132 -136 -60 -47 -156 -133 -214 -192 -103 -105 -159 -153 -240 -204 -22 -14
-53 -39 -69 -55 -38 -40 -75 -40 -96 0 -9 18 -26 32 -43 36 -56 12 -56 13 -24
47 16 17 61 65 98 106 38 41 105 111 149 155 45 45 102 110 129 146 86 118
100 134 215 255 172 179 169 177 321 265 25 14 35 6 41 -35z m2260 -154 c78
-10 90 -16 170 -84 146 -122 206 -170 232 -184 l29 -14 -99 -98 c-101 -100
-115 -121 -183 -283 -33 -80 -51 -94 -82 -65 -19 17 -49 35 -78 48 -14 6 -73
58 -131 117 -138 140 -233 224 -305 274 -67 45 -94 68 -94 79 0 12 65 49 250
141 126 63 182 86 200 83 14 -3 55 -9 91 -14z m-3531 -123 c149 -20 209 -54
261 -145 41 -71 49 -157 25 -269 -24 -112 -43 -159 -69 -171 -13 -6 -63 -8
-118 -5 -102 5 -272 -18 -338 -45 -62 -26 -137 -85 -166 -130 -15 -24 -30 -43
-35 -43 -4 0 -11 -11 -14 -25 -9 -34 -20 -32 -51 9 -32 42 -54 147 -49 236 12
264 55 385 167 472 23 18 44 35 47 39 15 19 124 68 171 76 71 13 81 13 169 1z
m-724 -174 c27 -30 62 -79 79 -107 l30 -52 0 -223 0 -224 -30 6 c-16 3 -55 10
-85 15 -30 5 -85 10 -122 10 l-66 1 -7 96 c-9 112 -1 202 24 293 30 106 97
241 121 241 4 0 30 -25 56 -56z m3641 -23 c32 -16 79 -39 105 -50 48 -20 212
-130 258 -173 14 -13 50 -39 80 -58 30 -19 61 -41 69 -48 24 -23 120 -92 128
-92 4 0 19 -9 33 -20 l25 -20 -35 -31 c-19 -17 -64 -48 -100 -70 -78 -46 -103
-68 -155 -134 -22 -27 -42 -52 -45 -55 -3 -3 -16 -18 -29 -35 -18 -24 -31 -30
-64 -32 -23 -1 -53 5 -67 12 -39 20 -170 133 -295 254 -60 58 -135 127 -165
151 -30 25 -57 47 -60 50 -3 3 -21 17 -40 30 -19 13 -41 32 -48 42 -7 9 -18
23 -25 30 -15 16 -47 65 -47 73 0 6 75 41 182 85 42 17 82 38 89 46 6 8 15 14
20 14 5 0 30 13 57 30 26 16 53 30 59 30 7 0 39 -13 70 -29z m-586 -252 c61
-20 103 -41 179 -92 103 -68 148 -105 270 -222 230 -221 327 -295 387 -295 34
0 29 -13 -31 -75 -50 -51 -103 -82 -231 -135 -25 -11 -70 -17 -203 -29 -86 -7
-109 -13 -144 -36 -36 -24 -42 -25 -50 -11 -5 9 -22 23 -39 31 -33 18 -223
205 -248 246 -15 25 -82 107 -204 250 -46 55 -72 75 -130 103 -39 19 -84 38
-99 41 -16 4 -28 11 -28 15 0 10 56 30 84 30 12 0 33 7 48 14 16 8 58 24 95
36 65 21 124 47 242 111 63 33 58 32 102 18z m-2140 -199 c18 -10 19 -14 8
-22 -10 -7 -8 -7 9 -3 37 10 60 -4 103 -61 92 -124 132 -273 111 -410 -10 -61
-21 -91 -57 -148 -78 -125 -111 -156 -205 -194 -65 -26 -121 -42 -190 -55 -67
-12 -84 -12 -152 3 -72 16 -154 55 -188 89 -30 29 -90 115 -109 155 -60 126
-66 185 -28 257 165 309 213 355 407 395 75 15 258 11 291 -6z m1517 -97 c37
-9 83 -26 102 -38 19 -12 46 -26 60 -30 68 -21 189 -122 267 -223 66 -84 92
-113 205 -224 65 -64 118 -121 118 -126 0 -20 -92 -52 -192 -67 -77 -11 -139
-14 -247 -9 -136 7 -147 9 -185 35 -23 15 -81 48 -131 74 -49 26 -105 59 -123
74 -19 14 -55 41 -80 60 -26 19 -94 80 -152 137 -58 57 -120 115 -138 130 -17
15 -32 32 -32 38 0 14 99 61 250 121 63 26 119 50 125 56 14 14 78 11 153 -8z"/>
        <path d="M5774 7421 c-87 -35 -121 -81 -95 -129 25 -46 151 -70 198 -37 29 20
47 84 33 119 -9 25 -64 67 -85 65 -5 -1 -28 -8 -51 -18z m102 -67 c4 -15 0
-34 -10 -49 -14 -21 -24 -25 -69 -25 -60 1 -87 17 -87 52 0 27 27 46 75 50 57
6 85 -3 91 -28z"/>
        <path d="M5703 6950 c0 -36 2 -50 4 -32 2 17 2 47 0 65 -2 17 -4 3 -4 -33z"/>
        <path d="M6042 6930 c0 -14 2 -19 5 -12 2 6 2 18 0 25 -3 6 -5 1 -5 -13z"/>
        <path d="M5542 6850 c0 -14 2 -19 5 -12 2 6 2 18 0 25 -3 6 -5 1 -5 -13z"/>
        <path d="M5868 6695 c-64 -42 -72 -76 -32 -125 31 -37 90 -67 149 -75 37 -6
46 -4 74 22 62 55 57 165 -8 179 -14 3 -42 9 -62 14 -54 15 -80 11 -121 -15z
m125 -31 c49 -9 75 -43 59 -80 -26 -56 -102 -54 -172 5 -29 25 -33 32 -24 48
15 25 55 44 79 38 11 -3 37 -8 58 -11z"/>
        <path d="M5778 6693 c7 -3 16 -2 19 1 4 3 -2 6 -13 5 -11 0 -14 -3 -6 -6z"/>
        <path d="M5733 6613 c9 -2 23 -2 30 0 6 3 -1 5 -18 5 -16 0 -22 -2 -12 -5z"/>
        <path d="M6160 6529 c0 -5 11 -9 25 -9 14 0 25 2 25 4 0 2 -11 6 -25 8 -14 3
-25 1 -25 -3z"/>
        <path d="M6252 6470 c0 -14 2 -19 5 -12 2 6 2 18 0 25 -3 6 -5 1 -5 -13z"/>
        <path d="M5726 6471 c-4 -5 -2 -12 3 -15 5 -4 12 -2 15 3 4 5 2 12 -3 15 -5 4
-12 2 -15 -3z"/>
        <path d="M5815 6469 c-4 -6 -5 -12 -2 -15 2 -3 7 2 10 11 7 17 1 20 -8 4z"/>
        <path d="M5771 6404 c-13 -19 -21 -37 -19 -40 3 -3 16 11 28 31 29 47 22 54
-9 9z"/>
        <path d="M5862 6414 c-7 -8 -12 -20 -9 -27 2 -7 9 -2 16 11 15 28 11 36 -7 16z"/>
        <path d="M5932 6409 c2 -6 8 -10 13 -10 5 0 11 4 13 10 2 6 -4 11 -13 11 -9 0
-15 -5 -13 -11z"/>
        <path d="M6210 6401 c0 -12 5 -21 10 -21 6 0 10 6 10 14 0 8 -4 18 -10 21 -5
3 -10 -3 -10 -14z"/>
        <path d="M6250 6410 c0 -5 5 -10 11 -10 5 0 7 5 4 10 -3 6 -8 10 -11 10 -2 0
-4 -4 -4 -10z"/>
        <path d="M6020 6396 c0 -9 7 -16 16 -16 9 0 14 5 12 12 -6 18 -28 21 -28 4z"/>
        <path d="M5456 6335 c-9 -26 -7 -32 5 -12 6 10 9 21 6 23 -2 3 -7 -2 -11 -11z"/>
        <path d="M6230 6285 c0 -30 -5 -64 -12 -75 -7 -10 -9 -23 -5 -27 15 -15 27 23
27 90 0 37 -2 67 -5 67 -3 0 -5 -25 -5 -55z"/>
        <path d="M5481 6274 c0 -11 3 -14 6 -6 3 7 2 16 -1 19 -3 4 -6 -2 -5 -13z"/>
        <path d="M6042 6168 c-1 -48 -7 -99 -12 -114 -11 -29 -6 -44 11 -27 6 6 8 54
6 119 -3 106 -3 107 -5 22z"/>
        <path d="M6148 6155 c-1 -30 0 -55 5 -55 4 0 7 25 7 55 0 71 -7 71 -12 0z"/>
        <path d="M6082 6069 c-13 -42 -8 -65 8 -39 8 13 14 80 7 80 -1 0 -8 -19 -15
-41z"/>
        <path d="M5621 6084 c0 -11 3 -14 6 -6 3 7 2 16 -1 19 -3 4 -6 -2 -5 -13z"/>
        <path d="M5948 6065 c-3 -14 -1 -25 3 -25 5 0 9 11 9 25 0 14 -2 25 -4 25 -2
0 -6 -11 -8 -25z"/>
        <path d="M5681 6054 c0 -11 3 -14 6 -6 3 7 2 16 -1 19 -3 4 -6 -2 -5 -13z"/>
        <path d="M5760 6031 c0 -25 6 -27 13 -6 4 8 2 17 -3 20 -6 4 -10 -3 -10 -14z"/>
        <path d="M5820 6026 c0 -15 4 -25 9 -22 10 7 9 31 -2 42 -4 4 -7 -5 -7 -20z"/>
        <path d="M1413 7593 c-9 -3 -11 -17 -7 -41 3 -21 0 -50 -7 -67 -15 -36 -35
-132 -48 -232 -12 -88 -36 -129 -142 -240 -77 -81 -99 -117 -134 -225 -11 -33
-43 -90 -77 -135 -88 -117 -98 -144 -98 -260 0 -122 -17 -173 -85 -257 -66
-82 -73 -95 -81 -155 -8 -63 2 -121 22 -121 11 0 13 10 8 53 -8 71 9 128 57
183 87 101 109 160 109 299 1 111 11 143 70 215 52 64 93 138 114 205 24 76
48 113 140 210 88 92 126 161 126 228 0 26 5 47 10 47 6 0 10 -40 10 -101 0
-113 22 -285 48 -369 13 -44 17 -89 15 -219 -1 -90 -4 -166 -7 -168 -3 -3 -27
14 -53 37 -44 39 -81 60 -104 60 -20 0 -7 -18 30 -38 39 -22 120 -107 133
-140 3 -9 4 -33 2 -52 -4 -30 5 -93 47 -320 4 -25 8 -58 8 -75 l0 -30 -42 49
c-75 88 -131 142 -192 187 -106 79 -135 93 -135 66 0 -7 17 -21 37 -32 20 -11
41 -25 47 -30 6 -6 25 -21 41 -33 54 -41 130 -120 170 -176 l40 -56 89 0 c67
0 87 3 83 13 -2 6 -16 64 -31 127 -15 63 -31 129 -37 147 -21 68 -39 233 -38
348 2 131 -18 284 -58 455 -23 96 -44 320 -30 320 3 0 17 -24 31 -52 52 -105
82 -154 141 -227 81 -99 125 -159 125 -169 0 -4 14 -24 30 -44 34 -41 34 -32
-2 -176 -20 -80 -19 -112 2 -112 13 0 55 67 63 102 12 47 52 128 63 128 25 0
124 -83 153 -128 24 -37 32 -64 35 -108 3 -32 8 -69 11 -82 4 -12 3 -28 -2
-35 -6 -6 -25 -59 -42 -117 -34 -110 -79 -214 -115 -265 -35 -49 -47 -77 -41
-97 8 -23 34 -24 41 0 3 9 30 67 59 127 30 61 66 155 80 210 15 55 29 108 32
117 11 38 61 29 188 -33 105 -51 132 -87 140 -189 4 -56 2 -77 -9 -89 -14 -15
-86 -154 -86 -166 0 -3 8 -5 19 -5 14 0 24 16 41 59 12 33 31 69 41 80 20 21
20 21 47 2 36 -26 75 -69 98 -108 18 -33 54 -45 54 -20 0 22 -58 98 -116 153
-54 51 -54 51 -54 113 0 116 -69 183 -254 245 -81 28 -83 30 -88 93 -7 104
-60 179 -179 255 -15 9 -53 25 -85 36 -54 17 -63 24 -109 90 -47 67 -103 137
-152 191 -12 14 -34 48 -49 75 -52 100 -84 165 -84 174 0 5 -13 49 -30 98 -24
71 -28 99 -24 140 6 51 0 65 -23 57z"/>
        <path d="M5140 6510 c-12 -8 -9 -10 13 -10 15 0 27 5 27 10 0 13 -20 13 -40 0z"/>
        <path d="M5073 6493 c9 -2 23 -2 30 0 6 3 -1 5 -18 5 -16 0 -22 -2 -12 -5z"/>
        <path d="M5008 6473 c6 -2 18 -2 25 0 6 3 1 5 -13 5 -14 0 -19 -2 -12 -5z"/>
        <path d="M5128 6413 c6 -2 18 -2 25 0 6 3 1 5 -13 5 -14 0 -19 -2 -12 -5z"/>
        <path d="M4856 6294 c-20 -19 -20 -25 -2 -18 8 3 17 12 20 20 7 18 1 18 -18
-2z"/>
        <path d="M5118 6303 c7 -3 16 -2 19 1 4 3 -2 6 -13 5 -11 0 -14 -3 -6 -6z"/>
        <path d="M4654 6255 c-16 -7 -42 -28 -57 -48 l-27 -35 20 -59 c26 -79 77 -128
128 -120 70 12 102 72 81 151 -23 87 -87 136 -145 111z m69 -94 c9 -16 17 -45
17 -65 0 -30 -5 -39 -26 -48 -24 -11 -29 -9 -55 20 -48 53 -33 121 26 122 12
0 28 -12 38 -29z"/>
        <path d="M4850 6180 c0 -5 5 -10 10 -10 6 0 10 5 10 10 0 6 -4 10 -10 10 -5 0
-10 -4 -10 -10z"/>
        <path d="M5278 6113 c7 -3 16 -2 19 1 4 3 -2 6 -13 5 -11 0 -14 -3 -6 -6z"/>
        <path d="M7100 6080 c0 -5 7 -10 15 -10 8 0 15 5 15 10 0 6 -7 10 -15 10 -8 0
-15 -4 -15 -10z"/>
        <path d="M5260 6050 c-8 -5 -11 -12 -8 -16 4 -3 14 1 23 10 18 17 9 21 -15 6z"/>
        <path d="M7018 5973 c7 -3 16 -2 19 1 4 3 -2 6 -13 5 -11 0 -14 -3 -6 -6z"/>
        <path d="M7620 5625 l0 -75 65 0 65 0 0 75 0 75 -65 0 -65 0 0 -75z"/>
        <path d="M760 5245 l0 -425 65 0 65 0 2 173 3 172 72 0 c102 0 113 -10 203
-193 l75 -152 68 0 c37 0 67 3 67 6 0 3 -33 74 -73 157 -73 152 -124 227 -156
227 -9 0 2 9 24 19 22 10 50 29 62 42 70 77 71 219 1 304 -59 71 -148 94 -365
95 l-113 0 0 -425z m324 288 c61 -29 84 -117 50 -189 -22 -45 -77 -66 -169
-62 l-70 3 -3 133 -3 132 80 0 c54 0 92 -5 115 -17z"/>
        <path d="M6230 5550 l0 -90 -85 0 -85 0 0 -50 0 -50 85 0 85 0 0 -186 c0 -216
9 -262 56 -303 45 -40 90 -51 207 -51 l97 0 0 50 0 50 -75 0 c-93 0 -141 18
-152 57 -4 15 -8 107 -8 203 l0 175 118 3 117 3 0 49 0 49 -117 3 -118 3 -3
88 -3 87 -59 0 -60 0 0 -90z"/>
        <path d="M2233 5446 c-97 -45 -145 -148 -145 -306 0 -193 71 -303 215 -329
106 -19 214 17 267 91 86 119 83 368 -6 485 -62 82 -221 110 -331 59z m195
-98 c57 -29 89 -151 71 -275 -11 -81 -32 -119 -79 -145 -69 -38 -148 -8 -182
69 -30 67 -29 224 1 287 39 79 110 103 189 64z"/>
        <path d="M3575 5465 c-5 -2 -36 -11 -67 -20 l-58 -16 0 -60 c0 -54 2 -60 18
-54 126 49 229 62 289 37 32 -14 63 -63 63 -100 0 -18 -9 -20 -124 -24 -107
-3 -129 -7 -172 -29 -91 -47 -136 -157 -104 -254 17 -51 73 -111 118 -126 95
-32 234 -1 267 59 l14 27 1 -42 0 -43 61 0 60 0 -3 254 -3 254 -31 44 c-19 26
-53 54 -84 71 -46 24 -62 27 -144 26 -50 0 -95 -2 -101 -4z m245 -358 c0 -45
-30 -123 -57 -149 -51 -48 -119 -61 -173 -33 -82 42 -66 168 24 194 17 5 70
10 119 10 85 1 87 0 87 -22z"/>
        <path d="M4915 5458 c-84 -29 -128 -94 -127 -185 1 -99 53 -147 195 -178 93
-21 141 -50 145 -88 11 -94 -122 -123 -278 -62 -35 14 -65 25 -67 25 -2 0 -3
-29 -3 -64 l0 -63 78 -18 c141 -34 272 -17 335 43 44 41 59 79 59 144 0 106
-49 153 -191 183 -102 21 -139 39 -147 69 -15 61 15 93 96 103 43 5 126 -13
198 -43 9 -4 12 10 12 55 l0 60 -52 16 c-59 17 -207 19 -253 3z"/>
        <path d="M8918 5460 c-80 -24 -147 -94 -180 -187 -30 -86 -23 -227 15 -306 34
-68 92 -120 160 -143 73 -24 187 -22 275 6 l72 23 0 58 c0 33 -2 59 -4 59 -2
0 -32 -11 -67 -24 -87 -33 -148 -41 -207 -27 -75 19 -132 85 -132 155 l0 26
218 2 217 3 -3 70 c-4 107 -28 172 -83 227 -28 28 -62 51 -85 57 -45 13 -156
13 -196 1z m180 -117 c24 -15 61 -85 62 -115 0 -16 -14 -18 -155 -18 -106 0
-155 3 -155 11 0 22 32 77 60 104 47 45 133 53 188 18z"/>
        <path d="M7460 5410 l0 -50 80 0 80 0 0 -220 0 -220 -100 0 -100 0 0 -50 0
-50 265 0 265 0 0 50 0 50 -100 0 -100 0 0 270 0 270 -145 0 -145 0 0 -50z"/>
        <path d="M753 4441 c-4 -203 10 -259 117 -476 93 -191 90 -183 100 -267 8 -74
14 -83 141 -233 74 -87 152 -160 234 -220 22 -16 70 -58 108 -92 92 -86 411
-322 560 -415 184 -115 235 -160 279 -243 20 -39 39 -83 43 -100 4 -16 11 -34
14 -40 7 -9 33 -125 46 -205 15 -85 19 -77 -147 -251 -202 -211 -247 -268
-373 -474 -57 -93 -112 -179 -122 -190 -10 -11 -29 -36 -43 -55 -13 -19 -27
-37 -30 -40 -10 -7 -169 -225 -219 -299 -80 -119 -147 -235 -218 -381 -99
-202 -109 -240 -64 -240 12 0 24 14 35 43 9 23 16 46 16 50 0 11 124 262 164
333 60 106 207 313 386 544 27 36 73 103 102 150 87 143 185 288 221 327 19
21 58 65 87 98 151 169 274 293 387 387 91 76 181 167 284 288 35 41 71 81 79
90 14 14 132 80 144 80 3 0 26 -29 51 -65 54 -75 88 -99 174 -121 70 -18 123
-14 224 17 75 23 77 23 77 4 0 -8 -8 -15 -19 -15 -15 0 -20 -10 -25 -50 -4
-28 -4 -55 -1 -60 7 -11 -13 -131 -25 -145 -15 -19 -22 -78 -22 -181 l0 -104
-150 6 c-157 6 -339 -8 -429 -31 -29 -8 -55 -13 -57 -11 -2 2 58 75 134 163
75 87 162 187 193 223 31 36 62 71 68 78 17 18 16 49 -1 55 -17 7 -34 -6 -68
-53 -14 -19 -42 -53 -63 -75 -21 -22 -63 -67 -93 -100 -31 -33 -85 -91 -122
-130 -92 -99 -346 -376 -440 -481 -19 -22 -74 -82 -121 -134 -133 -148 -182
-211 -283 -363 -52 -78 -102 -151 -113 -162 -10 -11 -47 -54 -83 -95 -36 -41
-73 -84 -83 -95 -21 -22 -167 -242 -214 -320 -53 -89 -85 -166 -79 -190 6 -24
27 -37 42 -27 18 13 60 78 74 112 15 41 185 324 215 359 11 13 62 71 113 130
51 58 136 171 189 250 103 153 168 237 266 341 34 36 94 101 132 144 39 44 75
84 80 90 37 40 165 185 181 203 21 27 42 29 70 8 11 -8 42 -14 76 -15 81 0
146 -37 220 -125 79 -92 222 -238 278 -284 25 -20 50 -40 56 -46 6 -5 22 -17
34 -25 12 -8 47 -33 78 -56 68 -48 190 -108 272 -133 110 -34 174 -46 380 -77
110 -16 160 -25 290 -54 52 -11 113 -25 135 -30 22 -4 74 -16 115 -25 41 -9
109 -19 151 -22 82 -5 111 4 160 50 88 84 173 104 394 91 82 -5 197 -9 255 -8
97 0 110 3 165 31 33 17 78 48 101 69 41 39 124 154 124 172 0 12 80 121 130
177 113 127 121 134 198 165 201 82 242 113 295 224 27 54 71 195 83 261 12
67 32 115 78 184 49 74 102 127 130 133 34 6 83 91 101 175 16 71 63 228 84
278 5 11 17 39 26 63 27 62 95 114 220 163 11 4 58 9 105 11 92 5 140 25 140
59 0 24 -21 24 -47 0 -17 -16 -35 -19 -109 -19 -73 0 -102 -4 -159 -26 -146
-56 -161 -60 -225 -59 -79 0 -194 24 -275 56 -94 38 -211 53 -293 38 -37 -7
-85 -18 -107 -26 -102 -33 -133 -38 -182 -26 -27 7 -64 22 -83 34 -87 56 -113
62 -284 62 -158 0 -162 -1 -202 -27 -22 -14 -48 -34 -57 -42 -15 -16 -21 -15
-74 0 -41 12 -97 18 -193 18 l-135 1 -87 -43 c-48 -23 -112 -62 -141 -86 -30
-24 -64 -49 -76 -55 -27 -15 -196 -13 -245 3 -34 10 -36 13 -36 53 0 175 -120
352 -272 402 -21 7 -40 17 -44 22 -6 10 219 239 281 284 22 17 42 33 45 36 3
3 14 11 26 17 80 42 584 507 584 538 0 38 -33 21 -107 -53 -43 -44 -99 -97
-125 -119 -25 -21 -84 -75 -130 -119 -45 -44 -101 -94 -123 -110 -22 -16 -54
-41 -71 -55 -17 -14 -41 -32 -53 -40 -104 -69 -303 -253 -369 -340 -15 -19
-29 -37 -32 -40 -3 -3 -58 -69 -122 -147 -101 -122 -262 -293 -276 -293 -3 0
-22 16 -43 35 -127 115 -346 135 -559 52 -47 -18 -94 -40 -100 -47 -3 -3 -22
-16 -43 -29 -37 -23 -80 -84 -97 -138 -5 -15 -18 -53 -30 -83 -15 -39 -20 -72
-18 -115 3 -59 3 -60 -26 -63 -16 -2 -33 1 -39 7 -6 6 -21 11 -32 11 -35 0
-136 56 -186 102 -154 145 -212 314 -146 431 58 105 134 172 248 218 124 51
212 33 285 -57 71 -88 87 -104 105 -104 24 0 30 27 19 75 -25 104 -3 212 78
385 32 68 100 158 144 191 47 36 236 149 247 149 6 0 13 -17 17 -37 11 -61 44
-123 75 -138 36 -19 54 -19 105 1 41 16 60 42 79 112 9 32 21 27 51 -19 22
-36 24 -45 14 -64 -15 -28 -5 -49 20 -42 14 4 21 -7 36 -57 9 -33 22 -67 28
-75 7 -8 11 -64 11 -135 l0 -121 -51 -105 c-58 -120 -91 -159 -163 -195 -82
-42 -61 -64 25 -25 68 31 125 97 178 207 26 54 52 106 57 115 15 29 11 201 -6
248 -18 52 -19 60 -2 60 7 0 45 31 85 68 40 38 122 99 184 137 255 155 368
266 430 420 26 64 33 70 128 100 30 10 80 29 110 44 l55 26 -58 3 c-39 2 -74
-3 -105 -15 -59 -23 -155 -22 -203 1 -26 12 -55 16 -100 14 l-64 -3 60 -28
c33 -16 68 -32 77 -38 10 -5 24 -9 33 -9 26 0 37 -36 24 -83 -13 -50 -37 -84
-120 -167 -78 -77 -132 -118 -284 -210 -135 -82 -183 -117 -239 -172 -21 -22
-40 -38 -41 -36 -1 2 -13 25 -25 52 -24 54 -66 121 -91 147 -70 71 -228 100
-330 61 -65 -24 -247 -136 -294 -180 -88 -82 -143 -175 -195 -332 -33 -99 -38
-121 -39 -162 -1 -35 -23 -36 -49 -4 -36 46 -98 70 -176 69 -39 -1 -85 -3
-102 -5 -25 -2 -45 8 -101 51 -107 84 -163 171 -215 335 -27 86 -32 116 -33
202 0 80 4 109 20 142 20 43 49 60 81 48 26 -10 90 15 126 48 18 18 47 58 63
90 l30 58 55 -6 c106 -13 220 -93 320 -226 19 -25 37 -47 40 -50 10 -8 37 -59
61 -115 26 -61 46 -85 71 -85 23 0 23 18 -1 44 -11 12 -35 53 -55 91 -38 78
-144 215 -209 270 -23 20 -69 51 -102 68 -57 30 -66 32 -172 32 -76 0 -116 -4
-125 -12 -19 -20 -38 -15 -38 10 -1 41 -37 107 -60 107 -23 0 -25 -17 -5 -44
10 -13 15 -43 15 -81 0 -53 -3 -65 -26 -86 -34 -32 -102 -147 -116 -195 -5
-22 -21 -52 -34 -67 -13 -16 -24 -37 -24 -48 0 -16 -132 -245 -150 -259 -12
-9 -80 -127 -80 -139 0 -21 30 -11 39 13 5 13 45 77 88 142 44 66 93 140 109
166 16 27 32 48 36 48 3 0 9 -15 13 -32 13 -70 39 -163 47 -173 4 -5 8 -16 8
-25 0 -9 15 -45 34 -81 23 -43 31 -70 26 -80 -5 -7 -12 -43 -15 -79 -6 -56
-34 -134 -54 -150 -13 -11 -68 -97 -84 -135 -10 -22 -22 -48 -27 -57 -5 -9
-13 -35 -16 -58 -4 -22 -11 -43 -15 -46 -12 -7 -11 -64 1 -64 5 0 17 17 25 37
8 20 24 43 35 50 11 8 20 19 20 25 0 16 106 155 154 204 23 22 67 60 99 83 47
36 60 41 72 31 22 -18 19 -24 -21 -44 -42 -20 -154 -103 -154 -115 0 -4 -9
-17 -20 -29 -11 -11 -34 -49 -51 -83 -26 -50 -32 -75 -33 -129 0 -38 5 -80 13
-96 7 -16 20 -45 29 -64 22 -47 66 -105 125 -163 57 -57 104 -87 172 -112 59
-22 62 -24 49 -33 -5 -4 -27 -29 -49 -57 -104 -132 -241 -277 -344 -366 -63
-54 -118 -96 -122 -93 -13 8 -11 64 2 64 18 0 38 32 39 61 0 15 7 32 15 39 17
14 20 61 5 76 -6 6 -17 48 -26 93 -15 77 -14 88 2 155 17 72 56 155 100 213
27 35 30 53 12 53 -14 0 -82 -92 -110 -148 -21 -41 -48 -133 -48 -162 0 -11
-4 -19 -9 -15 -10 5 -111 209 -145 290 -10 22 -27 58 -38 80 -11 22 -39 76
-62 120 -23 44 -64 132 -91 195 -27 63 -55 124 -62 135 -7 11 -13 29 -13 40 0
12 -8 39 -19 61 -10 21 -22 55 -26 74 -4 19 -15 60 -26 90 -38 113 -70 206
-79 225 -24 56 -60 177 -66 220 -3 28 -16 95 -29 150 -13 55 -26 120 -29 145
-3 25 -14 63 -24 85 -11 22 -23 56 -27 75 -14 73 -10 70 -91 70 -41 0 -74 -3
-74 -6 0 -3 11 -19 25 -36 14 -16 25 -37 25 -47 0 -9 4 -21 9 -27 5 -5 19 -40
31 -79 12 -38 26 -80 31 -93 16 -41 29 -110 23 -126 -5 -13 -12 -12 -51 5 -24
10 -49 19 -54 19 -6 0 -31 9 -57 21 -26 11 -56 24 -67 29 -11 5 -60 15 -110
24 -93 16 -112 22 -203 69 -37 18 -59 24 -65 18 -24 -24 33 -56 198 -113 50
-17 92 -34 95 -37 3 -3 23 -15 45 -26 47 -23 138 -76 145 -85 3 -3 21 -16 40
-27 19 -12 44 -30 56 -41 11 -11 36 -27 53 -37 24 -12 41 -33 61 -79 47 -102
93 -239 151 -446 18 -63 39 -126 46 -140 43 -83 -26 -55 -143 58 -7 6 -17 12
-23 12 -6 0 -11 4 -11 8 0 5 -37 26 -82 47 -69 31 -188 104 -208 125 -23 26
-202 150 -215 150 -3 0 -5 -6 -5 -13 0 -7 17 -23 38 -35 20 -11 72 -50 114
-86 82 -70 196 -149 268 -185 47 -24 121 -78 180 -132 19 -17 63 -49 96 -70
43 -27 66 -49 74 -72 7 -17 18 -45 24 -62 6 -16 33 -73 60 -125 49 -97 136
-295 136 -312 0 -6 -21 6 -47 26 -27 20 -93 64 -148 98 -85 53 -184 120 -220
150 -5 5 -48 37 -95 70 -47 34 -91 68 -99 76 -8 7 -37 31 -65 51 -28 21 -60
49 -71 61 -11 13 -74 66 -140 120 -123 99 -225 205 -308 319 -38 50 -47 71
-47 103 0 62 -18 110 -101 274 -101 200 -124 288 -115 434 7 111 1 170 -18
170 -7 0 -12 -44 -13 -139z m2062 -18 c-4 -10 -10 -27 -13 -38 -9 -33 -42 -74
-72 -90 -29 -15 -100 -21 -100 -8 0 4 12 25 27 46 47 67 180 143 158 90z
m1119 -358 c70 -18 105 -39 81 -48 -8 -4 -15 -13 -15 -20 0 -25 -58 -94 -84
-101 -15 -4 -35 -2 -46 4 -49 26 -82 163 -42 173 31 8 47 7 106 -8z m571 -660
c120 -70 189 -193 190 -340 0 -70 -4 -88 -30 -139 -18 -36 -57 -86 -97 -125
-38 -36 -68 -73 -68 -82 0 -31 29 -30 58 3 15 17 46 52 70 77 23 25 54 69 68
98 l26 51 141 -3 c106 -3 147 0 167 10 l27 14 -5 -142 c-3 -119 -1 -161 19
-262 12 -66 25 -142 28 -170 3 -28 10 -48 16 -45 11 5 11 11 0 216 -8 144 -5
166 37 289 11 29 90 205 107 235 4 8 30 22 57 32 41 15 68 18 159 13 123 -6
232 -33 226 -56 -12 -49 -17 -210 -9 -299 5 -58 6 -129 3 -157 -5 -44 -4 -53
9 -53 31 0 40 43 47 210 6 149 9 172 35 237 15 40 37 83 49 95 11 13 26 35 34
51 14 26 17 27 100 27 117 0 205 -21 276 -64 33 -20 66 -36 73 -36 16 0 15
-22 -2 -62 -18 -41 -40 -228 -28 -240 5 -5 16 -6 24 -3 11 4 17 26 21 79 5 72
34 153 63 177 8 6 14 18 14 25 0 8 8 14 17 14 10 0 35 6 58 14 122 43 156 48
270 44 62 -2 119 -9 127 -15 31 -25 178 -64 292 -79 26 -3 44 -9 40 -13 -5 -5
-47 -20 -94 -35 -101 -32 -130 -46 -233 -109 -44 -27 -86 -51 -96 -54 -9 -4
-32 -16 -51 -28 -19 -12 -46 -25 -60 -29 -14 -4 -133 -60 -265 -126 -132 -65
-267 -125 -300 -134 -33 -8 -89 -22 -125 -31 -107 -27 -178 -57 -316 -133 -28
-16 -83 -38 -139 -56 -190 -61 -334 -110 -360 -121 -16 -7 -57 -23 -90 -35
-33 -12 -110 -46 -171 -76 -61 -30 -126 -57 -145 -60 -38 -7 -115 -31 -141
-45 -19 -10 -48 -12 -48 -4 0 2 18 28 39 57 41 53 64 109 76 185 5 31 1 63
-15 115 -12 40 -26 77 -31 83 -5 5 -9 15 -9 21 0 37 -100 174 -200 274 -121
122 -169 150 -352 205 -81 24 -118 40 -118 50 0 8 7 15 14 15 19 0 63 41 73
67 5 11 42 58 85 104 42 46 93 107 114 134 21 28 43 56 50 63 7 7 30 34 51 60
21 26 42 50 47 54 11 8 48 -5 101 -37z m-770 -280 c61 -16 112 -43 149 -79 18
-18 22 -34 24 -108 3 -85 -4 -123 -39 -203 -59 -137 -290 -265 -478 -265 -97
0 -155 22 -194 73 l-27 36 20 39 c26 50 20 77 -31 132 -21 23 -39 47 -39 53 0
15 31 100 54 148 32 69 184 150 341 182 48 11 166 6 220 -8z m3497 -199 c-25
-52 -73 -198 -91 -274 -28 -120 -58 -157 -91 -116 -19 22 -67 40 -126 47 -48
5 -210 80 -241 110 -19 19 3 38 112 92 55 27 129 67 164 88 50 30 169 75 266
101 15 4 19 -23 7 -48z m-3200 -50 c24 -8 59 -17 78 -21 19 -4 67 -22 105 -39
83 -39 205 -148 299 -270 64 -83 80 -113 111 -201 9 -27 21 -58 26 -67 20 -38
-4 -152 -46 -218 -83 -131 -274 -250 -402 -250 -89 0 -169 45 -279 154 -50 50
-107 116 -126 146 -34 54 -81 172 -112 280 -27 93 -28 90 49 137 39 24 81 53
95 66 32 28 90 119 90 140 0 9 4 18 9 21 5 3 12 23 15 43 18 106 15 103 88 79z
m-890 -143 c34 -39 39 -60 20 -83 -15 -19 -20 -20 -30 -8 -16 19 -28 108 -15
108 5 0 17 -8 25 -17z m3582 -112 c63 -38 112 -60 181 -80 61 -19 115 -45 115
-57 0 -5 -20 -33 -44 -62 -85 -99 -140 -193 -152 -257 -6 -33 -19 -85 -28
-115 -9 -30 -20 -69 -25 -86 -13 -50 -60 -137 -93 -170 -16 -18 -48 -40 -71
-50 -98 -42 -124 -52 -161 -65 -21 -8 -69 -42 -107 -77 -37 -34 -70 -58 -73
-53 -3 5 -23 17 -43 26 -21 10 -78 46 -128 80 -49 33 -112 69 -140 80 -27 10
-66 28 -85 40 -42 26 -125 65 -139 65 -10 0 -99 36 -187 75 -49 23 -164 135
-164 161 0 10 219 124 354 184 48 21 104 22 131 1 13 -10 127 -36 225 -52 168
-27 208 -31 280 -34 81 -2 120 -9 189 -31 53 -18 83 -11 79 19 -6 42 -62 54
-363 81 -119 11 -169 20 -240 45 -49 17 -93 35 -98 40 -10 10 130 81 158 81 7
0 35 16 60 36 26 19 81 47 123 61 41 14 92 35 111 46 74 42 197 105 216 110
29 7 52 -1 119 -42z m-3054 -323 c0 -9 5 -20 10 -23 6 -3 10 -13 10 -22 0 -25
64 -161 90 -191 8 -10 43 -50 78 -89 34 -39 62 -74 62 -77 0 -8 -104 -8 -216
0 l-90 7 -13 41 c-29 91 -25 193 11 341 5 22 12 55 15 74 l6 34 18 -39 c10
-21 18 -47 19 -56z m1540 -309 c36 -10 78 -19 93 -19 16 0 43 -11 61 -25 18
-13 50 -31 72 -39 45 -16 105 -42 211 -92 39 -19 74 -34 78 -34 3 0 25 -9 48
-19 23 -11 69 -31 102 -45 32 -15 82 -45 110 -66 31 -24 63 -40 79 -40 16 0
48 -16 79 -39 29 -22 64 -43 80 -46 15 -4 27 -9 27 -11 0 -3 -31 -46 -70 -98
-38 -51 -70 -97 -70 -103 0 -14 -85 -129 -119 -161 -14 -14 -51 -37 -81 -51
-53 -25 -60 -26 -200 -21 -80 2 -210 4 -290 4 -175 1 -212 -10 -320 -90 l-75
-56 -66 6 c-36 3 -79 10 -95 15 -16 5 -42 12 -57 16 -20 4 -27 10 -23 21 4 9
-24 44 -77 97 -56 56 -92 103 -115 147 -18 36 -63 100 -100 142 -37 43 -76 94
-87 115 -11 21 -22 40 -25 43 -3 3 -21 30 -39 60 -18 30 -51 79 -72 108 l-40
52 26 10 c15 6 31 10 36 10 5 0 17 4 27 9 53 28 105 42 169 46 40 3 95 10 124
15 28 6 62 10 74 10 25 0 178 -108 208 -147 11 -13 53 -49 95 -80 43 -31 104
-81 137 -112 33 -31 78 -70 100 -86 47 -36 82 -64 106 -86 9 -9 43 -36 75 -60
33 -23 84 -64 114 -91 68 -60 129 -92 146 -77 22 18 2 50 -70 104 -39 29 -100
80 -136 112 -36 32 -108 89 -160 128 -52 38 -97 72 -100 75 -3 3 -32 27 -65
52 -66 51 -72 57 -164 178 -35 47 -75 95 -88 107 -12 12 -23 24 -23 27 0 2 24
12 53 20 28 8 86 33 127 55 41 22 82 37 90 34 8 -3 44 -14 80 -24z m-1339
-171 c79 -9 106 -8 121 1 17 10 29 8 76 -16 100 -50 188 -150 262 -297 19 -38
53 -86 74 -105 70 -64 94 -93 122 -145 26 -48 53 -83 127 -166 68 -74 80 -90
76 -94 -2 -3 -38 2 -79 11 -41 8 -93 19 -115 23 -22 4 -85 17 -140 28 -55 11
-127 24 -160 27 -75 8 -147 21 -254 47 -92 22 -111 28 -226 79 -41 18 -156 89
-175 109 -3 3 -25 18 -49 34 -42 27 -259 238 -351 341 -25 28 -56 58 -70 68
-16 11 -19 17 -10 18 8 0 22 2 30 3 8 2 96 6 196 10 l181 7 34 -38 c64 -72
126 -158 168 -238 54 -100 70 -121 167 -220 44 -44 87 -90 97 -103 18 -23 47
-27 54 -6 2 6 -52 67 -120 135 -69 70 -131 142 -142 164 -24 52 -88 156 -117
191 -13 15 -38 44 -55 65 -18 20 -33 41 -33 46 0 10 106 28 177 32 18 0 78 -4
134 -11z"/>
        <path d="M4358 3223 c7 -3 16 -2 19 1 4 3 -2 6 -13 5 -11 0 -14 -3 -6 -6z"/>
        <path d="M4176 3052 c5 -5 43 -5 84 -2 l75 7 -84 1 c-47 1 -81 -2 -75 -6z"/>
        <path d="M4340 2850 c0 -5 7 -7 15 -4 8 4 15 8 15 10 0 2 -7 4 -15 4 -8 0 -15
-4 -15 -10z"/>
        <path d="M3170 2816 c0 -8 6 -16 13 -19 19 -7 41 8 33 22 -10 16 -46 14 -46
-3z"/>
        <path d="M3241 2781 c-21 -14 -5 -43 21 -39 15 2 23 10 23 23 0 22 -22 30 -44
16z"/>
        <path d="M3304 2715 c-8 -21 3 -45 20 -45 16 0 31 34 21 50 -9 15 -35 12 -41
-5z"/>
        <path d="M3256 2643 c-12 -12 -6 -33 9 -33 8 0 15 6 15 14 0 17 -14 28 -24 19z"/>
        <path d="M3237 2564 c-14 -14 -7 -35 11 -32 9 2 17 10 17 17 0 16 -18 25 -28
15z"/>
        <path d="M3970 2569 c0 -5 5 -7 10 -4 6 3 10 8 10 11 0 2 -4 4 -10 4 -5 0 -10
-5 -10 -11z"/>
        <path d="M3920 2506 c0 -2 7 -7 16 -10 8 -3 12 -2 9 4 -6 10 -25 14 -25 6z"/>
        <path d="M3830 2402 c0 -5 12 -23 28 -42 37 -46 88 -100 71 -75 -8 11 -17 22
-20 25 -3 3 -18 26 -33 53 -25 42 -46 60 -46 39z"/>
        <path d="M4380 2335 c0 -16 27 -32 37 -21 7 7 -16 36 -28 36 -5 0 -9 -7 -9
-15z"/>
        <path d="M4470 2315 c0 -8 7 -15 15 -15 8 0 15 7 15 15 0 8 -7 15 -15 15 -8 0
-15 -7 -15 -15z"/>
        <path d="M4320 2266 c0 -8 4 -17 8 -20 13 -8 35 11 28 23 -10 16 -36 14 -36
-3z"/>
        <path d="M4409 2224 c-47 -50 -20 -171 42 -193 72 -25 110 -10 134 52 14 37
15 51 5 87 -16 59 -43 79 -106 80 -42 0 -55 -5 -75 -26z m145 -23 c10 -11 20
-37 23 -59 7 -53 -23 -82 -83 -82 -33 0 -45 5 -58 25 -22 33 -21 104 2 121 27
21 96 18 116 -5z"/>
        <path d="M4267 2184 c-13 -13 -7 -24 14 -24 11 0 19 5 17 12 -5 14 -22 21 -31
12z"/>
        <path d="M4250 2095 c0 -8 7 -15 15 -15 8 0 15 7 15 15 0 8 -7 15 -15 15 -8 0
-15 -7 -15 -15z"/>
        <path d="M4330 2053 c-49 -8 -81 -25 -70 -38 12 -15 110 13 110 33 0 6 -3 11
-7 11 -5 -1 -19 -4 -33 -6z"/>
        <path d="M4470 1986 c0 -10 9 -16 21 -16 24 0 21 23 -4 28 -10 2 -17 -3 -17
-12z"/>
        <path d="M4352 1981 c-10 -6 -10 -10 2 -20 10 -9 16 -9 21 -1 10 16 -7 31 -23
21z"/>
        <path d="M2296 4528 c-20 -29 -56 -75 -80 -103 -77 -85 -122 -210 -77 -210 17
0 28 20 35 65 4 22 27 62 61 105 68 86 125 170 125 185 0 26 -32 5 -64 -42z"/>
        <path d="M5512 4560 c-77 -123 -97 -201 -97 -370 1 -242 36 -332 183 -476 29
-28 63 -56 75 -62 90 -44 103 -47 198 -46 90 1 101 3 167 36 l70 36 53 -61
c108 -124 180 -194 226 -218 43 -21 59 -24 155 -22 202 3 315 52 390 169 69
108 86 189 69 330 -13 103 -20 125 -84 254 -26 53 -47 101 -47 108 0 7 15 12
38 12 57 1 168 34 212 65 49 34 118 113 146 167 l22 41 93 1 c79 2 103 6 149
28 l55 27 -252 -1 c-191 0 -253 -3 -253 -12 0 -21 54 -65 88 -72 18 -4 32 -11
32 -17 0 -26 -94 -118 -148 -144 -55 -27 -61 -28 -212 -27 -192 2 -271 18
-406 84 -98 48 -153 93 -198 163 -18 27 -46 37 -46 17 0 -15 78 -119 108 -145
21 -18 23 -24 12 -42 -11 -16 -10 -32 5 -92 23 -95 13 -183 -33 -296 -45 -110
-155 -237 -257 -296 -62 -36 -85 -37 -85 -5 0 27 -32 92 -64 129 -28 32 -67
51 -144 71 -79 20 -100 20 -147 0 -43 -18 -68 -6 -45 21 7 8 10 19 6 22 -4 4
-11 2 -15 -5 -23 -37 -51 129 -54 318 -2 136 6 172 55 248 15 24 28 52 28 63
0 26 -31 25 -48 -1z m934 -231 c57 -32 117 -49 204 -59 146 -17 143 -15 187
-83 22 -34 55 -98 73 -142 32 -77 34 -85 34 -220 1 -147 -2 -161 -55 -237
l-19 -26 -41 20 c-39 19 -40 20 -23 39 9 10 13 19 7 19 -5 0 -18 -9 -28 -20
-10 -11 -28 -20 -40 -20 -26 0 -91 -42 -118 -77 -17 -21 -26 -24 -54 -20 -20
4 -31 2 -28 -4 4 -5 11 -9 17 -9 5 0 24 -10 41 -22 l32 -23 -30 -6 c-50 -11
-125 -10 -169 3 -51 14 -198 160 -240 239 l-28 51 25 26 26 26 52 -57 c47 -52
105 -97 124 -97 5 0 -18 26 -51 58 -61 57 -94 101 -94 123 0 9 70 129 86 148
2 2 26 -19 54 -48 62 -64 67 -56 5 10 -50 53 -51 60 -27 139 l17 54 18 -34
c21 -43 22 -23 2 27 -17 41 -22 243 -5 243 5 0 26 -9 46 -21z m-637 -530 c41
-23 81 -84 81 -123 0 -16 -6 -17 -52 -11 -29 4 -59 11 -68 16 -8 4 -31 15 -51
24 -36 16 -109 80 -109 96 0 36 134 35 199 -2z m1026 -259 c13 -11 12 -15 -12
-37 -16 -13 -39 -26 -53 -30 -14 -3 -29 -9 -35 -13 -15 -11 -95 -23 -95 -14 0
4 19 32 41 62 l41 54 49 -4 c27 -3 55 -11 64 -18z"/>
        <path d="M6490 4165 c0 -3 9 -22 20 -42 11 -21 20 -32 20 -25 0 15 -28 72 -35
72 -3 0 -5 -2 -5 -5z"/>
        <path d="M6610 4164 c0 -4 14 -22 30 -41 34 -38 38 -35 13 8 -15 26 -43 47
-43 33z"/>
        <path d="M6730 4156 c0 -7 7 -19 15 -26 9 -7 27 -36 40 -64 14 -28 25 -45 25
-37 0 7 -14 42 -31 77 -30 61 -49 80 -49 50z"/>
        <path d="M6540 4075 c0 -5 5 -17 10 -25 5 -8 10 -10 10 -5 0 6 -5 17 -10 25
-5 8 -10 11 -10 5z"/>
        <path d="M6690 4041 c0 -10 19 -25 25 -20 1 2 -3 10 -11 17 -8 7 -14 8 -14 3z"/>
        <path d="M6822 3990 c0 -14 2 -19 5 -12 2 6 2 18 0 25 -3 6 -5 1 -5 -13z"/>
        <path d="M6831 3944 c0 -11 3 -14 6 -6 3 7 2 16 -1 19 -3 4 -6 -2 -5 -13z"/>
        <path d="M6310 3878 c1 -26 139 -158 165 -158 5 0 -16 23 -47 50 -31 28 -66
66 -78 85 -22 35 -40 46 -40 23z"/>
        <path d="M6646 3672 c-3 -5 1 -15 9 -22 16 -14 20 -3 6 19 -5 8 -11 9 -15 3z"/>
        <path d="M7010 4505 c-8 -9 -8 -15 -2 -15 12 0 26 19 19 26 -2 2 -10 -2 -17
-11z"/>
        <path d="M5631 4414 c0 -11 3 -14 6 -6 3 7 2 16 -1 19 -3 4 -6 -2 -5 -13z"/>
        <path d="M2896 4403 c-12 -12 -6 -33 9 -33 8 0 15 6 15 14 0 17 -14 28 -24 19z"/>
        <path d="M2837 4333 c-12 -12 -7 -31 10 -37 24 -9 39 9 23 29 -14 16 -23 19
-33 8z"/>
        <path d="M2802 4239 c1 -12 9 -24 16 -27 9 -3 13 3 10 19 -1 12 -9 24 -16 27
-9 3 -13 -3 -10 -19z"/>
        <path d="M2742 4201 c-10 -6 -10 -10 1 -20 12 -9 16 -8 20 3 7 19 -4 27 -21
17z"/>
        <path d="M2600 4163 c0 -38 14 -72 24 -62 9 9 -5 99 -15 99 -5 0 -9 -17 -9
-37z"/>
        <path d="M2660 4180 c0 -23 35 -28 43 -6 7 18 -1 26 -25 26 -11 0 -18 -7 -18
-20z"/>
        <path d="M5711 4014 c0 -11 3 -14 6 -6 3 7 2 16 -1 19 -3 4 -6 -2 -5 -13z"/>
        <path d="M3737 3974 c-14 -15 -6 -34 14 -34 14 0 19 5 17 17 -3 18 -20 27 -31
17z"/>
        <path d="M5780 3970 c0 -5 5 -10 10 -10 6 0 10 5 10 10 0 6 -4 10 -10 10 -5 0
-10 -4 -10 -10z"/>
        <path d="M3331 3914 c0 -11 3 -14 6 -6 3 7 2 16 -1 19 -3 4 -6 -2 -5 -13z"/>
        <path d="M5910 3904 c0 -8 5 -12 10 -9 6 4 8 11 5 16 -9 14 -15 11 -15 -7z"/>
        <path d="M3740 3860 c-7 -4 -9 -13 -6 -19 10 -16 46 -14 46 3 0 17 -23 27 -40
16z"/>
        <path d="M4076 3841 c-9 -14 4 -41 19 -41 15 0 24 19 18 38 -5 14 -29 16 -37
3z"/>
        <path d="M3920 3780 c0 -11 6 -20 13 -20 19 0 27 10 20 26 -8 21 -33 17 -33
-6z"/>
        <path d="M3020 3765 c0 -5 5 -17 10 -25 5 -8 10 -10 10 -5 0 6 -5 17 -10 25
-5 8 -10 11 -10 5z"/>
        <path d="M2910 3735 c0 -5 5 -17 10 -25 5 -8 10 -10 10 -5 0 6 -5 17 -10 25
-5 8 -10 11 -10 5z"/>
        <path d="M2943 3679 c11 -33 96 -148 103 -138 5 9 -21 45 -56 79 -3 3 -16 21
-29 40 -12 19 -21 28 -18 19z"/>
        <path d="M3109 3648 c11 -13 29 -34 40 -47 12 -13 21 -30 21 -38 0 -7 5 -13
10 -13 14 0 13 19 -2 34 -7 7 -26 29 -42 49 -16 20 -33 37 -38 37 -4 0 1 -10
11 -22z"/>
        <path d="M2830 3633 c0 -12 67 -83 79 -83 5 0 11 -4 13 -8 2 -5 17 -12 33 -16
29 -7 29 -7 10 8 -11 8 -26 16 -33 16 -6 0 -32 21 -57 46 -25 25 -45 42 -45
37z"/>
        <path d="M3501 3554 c0 -11 3 -14 6 -6 3 7 2 16 -1 19 -3 4 -6 -2 -5 -13z"/>
        <path d="M3492 3495 c0 -16 2 -22 5 -12 2 9 2 23 0 30 -3 6 -5 -1 -5 -18z"/>
        <path d="M3583 3440 c0 -30 2 -43 4 -27 2 15 2 39 0 55 -2 15 -4 2 -4 -28z"/>
        <path d="M3722 3460 c0 -19 2 -27 5 -17 2 9 2 25 0 35 -3 9 -5 1 -5 -18z"/>
        <path d="M4022 3430 c0 -19 2 -27 5 -17 2 9 2 25 0 35 -3 9 -5 1 -5 -18z"/>
        <path d="M3473 3405 c0 -27 2 -38 4 -22 2 15 2 37 0 50 -2 12 -4 0 -4 -28z"/>
        <path d="M4000 3370 c0 -25 -54 -109 -105 -165 -21 -22 -32 -41 -25 -43 6 -2
13 -2 14 -1 69 87 118 164 123 193 3 20 3 36 -1 36 -3 0 -6 -9 -6 -20z"/>
        <path d="M3700 3360 c0 -11 5 -20 10 -20 6 0 10 9 10 20 0 11 -4 20 -10 20 -5
0 -10 -9 -10 -20z"/>
        <path d="M3911 3364 c0 -11 3 -14 6 -6 3 7 2 16 -1 19 -3 4 -6 -2 -5 -13z"/>
        <path d="M3565 3357 c-4 -10 -5 -21 -1 -24 10 -10 18 4 13 24 -4 17 -4 17 -12
0z"/>
        <path d="M3480 3325 c0 -14 5 -25 10 -25 6 0 10 11 10 25 0 14 -4 25 -10 25
-5 0 -10 -11 -10 -25z"/>
        <path d="M3891 3314 c0 -11 3 -14 6 -6 3 7 2 16 -1 19 -3 4 -6 -2 -5 -13z"/>
        <path d="M3687 3286 c-5 -21 -6 -41 -3 -44 12 -11 17 7 14 44 l-3 39 -8 -39z"/>
        <path d="M3780 3271 c0 -25 6 -27 13 -6 4 8 2 17 -3 20 -6 4 -10 -3 -10 -14z"/>
        <path d="M3872 3269 c-7 -11 -11 -23 -9 -25 7 -7 29 24 25 36 -2 6 -9 1 -16
-11z"/>
    </g>
</svg>
